<mxfile host="app.diagrams.net" agent="Mozilla/5.0 (Windows NT 10.0; Win64; x64) AppleWebKit/537.36 (KHTML, like Gecko) Chrome/133.0.0.0 Safari/537.36 Edg/133.0.0.0" version="26.1.0">
  <diagram name="第 1 页" id="3ImLSYelry7E7eVT9qmC">
    <mxGraphModel dx="2510" dy="953" grid="1" gridSize="10" guides="1" tooltips="1" connect="1" arrows="1" fold="1" page="1" pageScale="1" pageWidth="827" pageHeight="1169" math="0" shadow="0">
      <root>
        <mxCell id="0" />
        <mxCell id="1" parent="0" />
        <mxCell id="sP9vwEh8VMAq78QCd82c-1" value="Crane Area" style="swimlane;whiteSpace=wrap;html=1;" parent="1" vertex="1">
          <mxGeometry x="200" y="210" width="600" height="1050" as="geometry" />
        </mxCell>
        <mxCell id="sP9vwEh8VMAq78QCd82c-2" value="" style="rounded=0;whiteSpace=wrap;html=1;" parent="sP9vwEh8VMAq78QCd82c-1" vertex="1">
          <mxGeometry x="35" y="50" width="355" height="310" as="geometry" />
        </mxCell>
        <mxCell id="sP9vwEh8VMAq78QCd82c-3" value="ECMS&lt;br&gt;QC 2201" style="rounded=0;whiteSpace=wrap;html=1;fillColor=#dae8fc;strokeColor=#6c8ebf;" parent="sP9vwEh8VMAq78QCd82c-1" vertex="1">
          <mxGeometry x="285" y="50" width="105" height="40" as="geometry" />
        </mxCell>
        <mxCell id="sP9vwEh8VMAq78QCd82c-4" value="Nginx&lt;br&gt;{NG-Version}" style="rounded=1;whiteSpace=wrap;html=1;fillColor=#d5e8d4;strokeColor=#82b366;" parent="sP9vwEh8VMAq78QCd82c-1" vertex="1">
          <mxGeometry x="80.25" y="190" width="82.5" height="30" as="geometry" />
        </mxCell>
        <mxCell id="sP9vwEh8VMAq78QCd82c-34" value="" style="edgeStyle=orthogonalEdgeStyle;rounded=0;orthogonalLoop=1;jettySize=auto;html=1;fillColor=#d5e8d4;strokeColor=#82b366;" parent="sP9vwEh8VMAq78QCd82c-1" source="sP9vwEh8VMAq78QCd82c-6" target="sP9vwEh8VMAq78QCd82c-21" edge="1">
          <mxGeometry relative="1" as="geometry" />
        </mxCell>
        <mxCell id="sP9vwEh8VMAq78QCd82c-37" style="edgeStyle=orthogonalEdgeStyle;rounded=0;orthogonalLoop=1;jettySize=auto;html=1;exitX=0.75;exitY=0;exitDx=0;exitDy=0;entryX=0.25;entryY=1;entryDx=0;entryDy=0;fillColor=#d5e8d4;strokeColor=#82b366;" parent="sP9vwEh8VMAq78QCd82c-1" source="sP9vwEh8VMAq78QCd82c-6" target="sP9vwEh8VMAq78QCd82c-9" edge="1">
          <mxGeometry relative="1" as="geometry">
            <Array as="points">
              <mxPoint x="142" y="300" />
              <mxPoint x="193" y="300" />
            </Array>
          </mxGeometry>
        </mxCell>
        <mxCell id="sP9vwEh8VMAq78QCd82c-6" value="InfluxDB &lt;br&gt;{IF-Version}" style="rounded=1;whiteSpace=wrap;html=1;fillColor=#d5e8d4;strokeColor=#82b366;" parent="sP9vwEh8VMAq78QCd82c-1" vertex="1">
          <mxGeometry x="80.25" y="310" width="82.5" height="30" as="geometry" />
        </mxCell>
        <mxCell id="sP9vwEh8VMAq78QCd82c-35" value="" style="edgeStyle=orthogonalEdgeStyle;rounded=0;orthogonalLoop=1;jettySize=auto;html=1;" parent="sP9vwEh8VMAq78QCd82c-1" source="sP9vwEh8VMAq78QCd82c-7" target="sP9vwEh8VMAq78QCd82c-9" edge="1">
          <mxGeometry relative="1" as="geometry" />
        </mxCell>
        <mxCell id="sP9vwEh8VMAq78QCd82c-38" style="edgeStyle=orthogonalEdgeStyle;rounded=0;orthogonalLoop=1;jettySize=auto;html=1;exitX=0.25;exitY=0;exitDx=0;exitDy=0;entryX=0.75;entryY=1;entryDx=0;entryDy=0;" parent="sP9vwEh8VMAq78QCd82c-1" source="sP9vwEh8VMAq78QCd82c-7" target="sP9vwEh8VMAq78QCd82c-21" edge="1">
          <mxGeometry relative="1" as="geometry">
            <Array as="points">
              <mxPoint x="193" y="290" />
              <mxPoint x="141" y="290" />
              <mxPoint x="141" y="270" />
            </Array>
          </mxGeometry>
        </mxCell>
        <mxCell id="sP9vwEh8VMAq78QCd82c-7" value="MySQL&lt;br&gt;{My-Version}" style="rounded=1;whiteSpace=wrap;html=1;fillColor=#d5e8d4;strokeColor=#82b366;" parent="sP9vwEh8VMAq78QCd82c-1" vertex="1">
          <mxGeometry x="172.75" y="310" width="82.5" height="30" as="geometry" />
        </mxCell>
        <mxCell id="sP9vwEh8VMAq78QCd82c-39" style="edgeStyle=orthogonalEdgeStyle;rounded=0;orthogonalLoop=1;jettySize=auto;html=1;exitX=0.25;exitY=0;exitDx=0;exitDy=0;entryX=0.75;entryY=1;entryDx=0;entryDy=0;fillColor=#e1d5e7;strokeColor=#9673a6;" parent="sP9vwEh8VMAq78QCd82c-1" source="sP9vwEh8VMAq78QCd82c-8" target="sP9vwEh8VMAq78QCd82c-9" edge="1">
          <mxGeometry relative="1" as="geometry" />
        </mxCell>
        <mxCell id="sP9vwEh8VMAq78QCd82c-40" style="edgeStyle=orthogonalEdgeStyle;rounded=0;orthogonalLoop=1;jettySize=auto;html=1;entryX=0.5;entryY=1;entryDx=0;entryDy=0;fillColor=#e1d5e7;strokeColor=#9673a6;" parent="sP9vwEh8VMAq78QCd82c-1" source="sP9vwEh8VMAq78QCd82c-8" target="sP9vwEh8VMAq78QCd82c-10" edge="1">
          <mxGeometry relative="1" as="geometry" />
        </mxCell>
        <mxCell id="sP9vwEh8VMAq78QCd82c-8" value="RabbitMQ&lt;br&gt;{RM-Version}" style="rounded=1;whiteSpace=wrap;html=1;fillColor=#d5e8d4;strokeColor=#82b366;" parent="sP9vwEh8VMAq78QCd82c-1" vertex="1">
          <mxGeometry x="263.75" y="310" width="82.5" height="30" as="geometry" />
        </mxCell>
        <mxCell id="sP9vwEh8VMAq78QCd82c-41" style="edgeStyle=orthogonalEdgeStyle;rounded=0;orthogonalLoop=1;jettySize=auto;html=1;exitX=0.75;exitY=0;exitDx=0;exitDy=0;entryX=0;entryY=0.75;entryDx=0;entryDy=0;fillColor=#d5e8d4;strokeColor=#82b366;" parent="sP9vwEh8VMAq78QCd82c-1" source="sP9vwEh8VMAq78QCd82c-9" target="sP9vwEh8VMAq78QCd82c-10" edge="1">
          <mxGeometry relative="1" as="geometry" />
        </mxCell>
        <mxCell id="sP9vwEh8VMAq78QCd82c-45" style="edgeStyle=orthogonalEdgeStyle;rounded=0;orthogonalLoop=1;jettySize=auto;html=1;exitX=0.5;exitY=0;exitDx=0;exitDy=0;entryX=1;entryY=0.5;entryDx=0;entryDy=0;" parent="sP9vwEh8VMAq78QCd82c-1" source="sP9vwEh8VMAq78QCd82c-9" target="sP9vwEh8VMAq78QCd82c-181" edge="1">
          <mxGeometry relative="1" as="geometry">
            <mxPoint x="162.75" y="155" as="targetPoint" />
          </mxGeometry>
        </mxCell>
        <mxCell id="sP9vwEh8VMAq78QCd82c-182" style="edgeStyle=orthogonalEdgeStyle;rounded=0;orthogonalLoop=1;jettySize=auto;html=1;entryX=1;entryY=0.5;entryDx=0;entryDy=0;" parent="sP9vwEh8VMAq78QCd82c-1" source="sP9vwEh8VMAq78QCd82c-9" target="sP9vwEh8VMAq78QCd82c-180" edge="1">
          <mxGeometry relative="1" as="geometry">
            <Array as="points">
              <mxPoint x="213" y="105" />
            </Array>
          </mxGeometry>
        </mxCell>
        <mxCell id="sP9vwEh8VMAq78QCd82c-9" value="ISS-API" style="rounded=1;whiteSpace=wrap;html=1;fillColor=#f8cecc;strokeColor=#b85450;" parent="sP9vwEh8VMAq78QCd82c-1" vertex="1">
          <mxGeometry x="172" y="240" width="82.5" height="30" as="geometry" />
        </mxCell>
        <mxCell id="sP9vwEh8VMAq78QCd82c-42" style="edgeStyle=orthogonalEdgeStyle;rounded=0;orthogonalLoop=1;jettySize=auto;html=1;exitX=0;exitY=0.5;exitDx=0;exitDy=0;entryX=1;entryY=0.5;entryDx=0;entryDy=0;fillColor=#d5e8d4;strokeColor=#82b366;" parent="sP9vwEh8VMAq78QCd82c-1" source="sP9vwEh8VMAq78QCd82c-10" target="sP9vwEh8VMAq78QCd82c-4" edge="1">
          <mxGeometry relative="1" as="geometry" />
        </mxCell>
        <mxCell id="sP9vwEh8VMAq78QCd82c-10" value="ISS-Web" style="rounded=1;whiteSpace=wrap;html=1;fillColor=#f8cecc;strokeColor=#b85450;" parent="sP9vwEh8VMAq78QCd82c-1" vertex="1">
          <mxGeometry x="263.75" y="190" width="82.5" height="30" as="geometry" />
        </mxCell>
        <mxCell id="sP9vwEh8VMAq78QCd82c-43" style="edgeStyle=orthogonalEdgeStyle;rounded=0;orthogonalLoop=1;jettySize=auto;html=1;exitX=0.5;exitY=0;exitDx=0;exitDy=0;entryX=0.5;entryY=1;entryDx=0;entryDy=0;fillColor=#d5e8d4;strokeColor=#82b366;" parent="sP9vwEh8VMAq78QCd82c-1" source="sP9vwEh8VMAq78QCd82c-21" target="sP9vwEh8VMAq78QCd82c-4" edge="1">
          <mxGeometry relative="1" as="geometry" />
        </mxCell>
        <mxCell id="sP9vwEh8VMAq78QCd82c-21" value="leewell-tools" style="rounded=1;whiteSpace=wrap;html=1;fillColor=#f8cecc;strokeColor=#b85450;" parent="sP9vwEh8VMAq78QCd82c-1" vertex="1">
          <mxGeometry x="80.25" y="240" width="82.5" height="30" as="geometry" />
        </mxCell>
        <mxCell id="sP9vwEh8VMAq78QCd82c-46" value="Windows Server {WS-Version}" style="rounded=0;whiteSpace=wrap;html=1;" parent="sP9vwEh8VMAq78QCd82c-1" vertex="1">
          <mxGeometry x="35" y="50" width="185" height="30" as="geometry" />
        </mxCell>
        <mxCell id="sP9vwEh8VMAq78QCd82c-51" value="" style="rounded=0;whiteSpace=wrap;html=1;" parent="sP9vwEh8VMAq78QCd82c-1" vertex="1">
          <mxGeometry x="440" y="50" width="130" height="270" as="geometry" />
        </mxCell>
        <mxCell id="sP9vwEh8VMAq78QCd82c-56" style="edgeStyle=orthogonalEdgeStyle;rounded=0;orthogonalLoop=1;jettySize=auto;html=1;exitX=0;exitY=0;exitDx=0;exitDy=10;exitPerimeter=0;entryX=1;entryY=0.5;entryDx=0;entryDy=0;fillColor=#ffe6cc;strokeColor=#d79b00;" parent="sP9vwEh8VMAq78QCd82c-1" source="sP9vwEh8VMAq78QCd82c-47" target="sP9vwEh8VMAq78QCd82c-9" edge="1">
          <mxGeometry relative="1" as="geometry" />
        </mxCell>
        <mxCell id="sP9vwEh8VMAq78QCd82c-47" value="Controller" style="shape=cube;whiteSpace=wrap;html=1;boundedLbl=1;backgroundOutline=1;darkOpacity=0.05;darkOpacity2=0.1;" parent="sP9vwEh8VMAq78QCd82c-1" vertex="1">
          <mxGeometry x="460" y="110" width="90" height="40" as="geometry" />
        </mxCell>
        <mxCell id="sP9vwEh8VMAq78QCd82c-57" style="edgeStyle=orthogonalEdgeStyle;rounded=0;orthogonalLoop=1;jettySize=auto;html=1;entryX=1;entryY=0.5;entryDx=0;entryDy=0;fillColor=#ffe6cc;strokeColor=#d79b00;" parent="sP9vwEh8VMAq78QCd82c-1" source="sP9vwEh8VMAq78QCd82c-48" target="sP9vwEh8VMAq78QCd82c-9" edge="1">
          <mxGeometry relative="1" as="geometry" />
        </mxCell>
        <mxCell id="sP9vwEh8VMAq78QCd82c-48" value="Controller" style="shape=cube;whiteSpace=wrap;html=1;boundedLbl=1;backgroundOutline=1;darkOpacity=0.05;darkOpacity2=0.1;" parent="sP9vwEh8VMAq78QCd82c-1" vertex="1">
          <mxGeometry x="460" y="190" width="90" height="40" as="geometry" />
        </mxCell>
        <mxCell id="sP9vwEh8VMAq78QCd82c-59" style="edgeStyle=orthogonalEdgeStyle;rounded=0;orthogonalLoop=1;jettySize=auto;html=1;exitX=0;exitY=0;exitDx=0;exitDy=10;exitPerimeter=0;entryX=1;entryY=0.5;entryDx=0;entryDy=0;fillColor=#ffe6cc;strokeColor=#d79b00;" parent="sP9vwEh8VMAq78QCd82c-1" source="sP9vwEh8VMAq78QCd82c-49" target="sP9vwEh8VMAq78QCd82c-9" edge="1">
          <mxGeometry relative="1" as="geometry" />
        </mxCell>
        <mxCell id="sP9vwEh8VMAq78QCd82c-60" value="MQTT" style="edgeLabel;html=1;align=center;verticalAlign=middle;resizable=0;points=[];fontSize=7;" parent="sP9vwEh8VMAq78QCd82c-59" vertex="1" connectable="0">
          <mxGeometry x="0.8933" y="-1" relative="1" as="geometry">
            <mxPoint x="153" y="-44" as="offset" />
          </mxGeometry>
        </mxCell>
        <mxCell id="sP9vwEh8VMAq78QCd82c-49" value="Controller" style="shape=cube;whiteSpace=wrap;html=1;boundedLbl=1;backgroundOutline=1;darkOpacity=0.05;darkOpacity2=0.1;" parent="sP9vwEh8VMAq78QCd82c-1" vertex="1">
          <mxGeometry x="460" y="270" width="90" height="40" as="geometry" />
        </mxCell>
        <mxCell id="sP9vwEh8VMAq78QCd82c-52" value="QC 2201" style="rounded=0;whiteSpace=wrap;html=1;" parent="sP9vwEh8VMAq78QCd82c-1" vertex="1">
          <mxGeometry x="440" y="50" width="130" height="20" as="geometry" />
        </mxCell>
        <mxCell id="sP9vwEh8VMAq78QCd82c-53" value="PT PH" style="rounded=0;whiteSpace=wrap;html=1;" parent="sP9vwEh8VMAq78QCd82c-1" vertex="1">
          <mxGeometry x="440" y="70" width="130" height="20" as="geometry" />
        </mxCell>
        <mxCell id="sP9vwEh8VMAq78QCd82c-54" value="Boom" style="rounded=0;whiteSpace=wrap;html=1;" parent="sP9vwEh8VMAq78QCd82c-1" vertex="1">
          <mxGeometry x="440" y="160" width="130" height="20" as="geometry" />
        </mxCell>
        <mxCell id="sP9vwEh8VMAq78QCd82c-55" value="etc." style="rounded=0;whiteSpace=wrap;html=1;" parent="sP9vwEh8VMAq78QCd82c-1" vertex="1">
          <mxGeometry x="440" y="240" width="130" height="20" as="geometry" />
        </mxCell>
        <mxCell id="sP9vwEh8VMAq78QCd82c-180" value="Leewell Data Input Service" style="rounded=1;whiteSpace=wrap;html=1;fillColor=#fff2cc;strokeColor=#d6b656;" parent="sP9vwEh8VMAq78QCd82c-1" vertex="1">
          <mxGeometry x="71.5" y="90" width="100" height="30" as="geometry" />
        </mxCell>
        <mxCell id="sP9vwEh8VMAq78QCd82c-181" value="Leewell Feature Data Handle" style="rounded=1;whiteSpace=wrap;html=1;fillColor=#fff2cc;strokeColor=#d6b656;" parent="sP9vwEh8VMAq78QCd82c-1" vertex="1">
          <mxGeometry x="71.5" y="140" width="100" height="30" as="geometry" />
        </mxCell>
        <mxCell id="sP9vwEh8VMAq78QCd82c-221" value="" style="rounded=0;whiteSpace=wrap;html=1;" parent="sP9vwEh8VMAq78QCd82c-1" vertex="1">
          <mxGeometry x="35" y="380" width="355" height="310" as="geometry" />
        </mxCell>
        <mxCell id="sP9vwEh8VMAq78QCd82c-222" value="ECMS&lt;br&gt;QC 2202" style="rounded=0;whiteSpace=wrap;html=1;fillColor=#dae8fc;strokeColor=#6c8ebf;" parent="sP9vwEh8VMAq78QCd82c-1" vertex="1">
          <mxGeometry x="285" y="380" width="105" height="40" as="geometry" />
        </mxCell>
        <mxCell id="sP9vwEh8VMAq78QCd82c-223" value="Nginx&lt;br&gt;{NG-Version}" style="rounded=1;whiteSpace=wrap;html=1;fillColor=#d5e8d4;strokeColor=#82b366;" parent="sP9vwEh8VMAq78QCd82c-1" vertex="1">
          <mxGeometry x="80.25" y="520" width="82.5" height="30" as="geometry" />
        </mxCell>
        <mxCell id="sP9vwEh8VMAq78QCd82c-224" value="" style="edgeStyle=orthogonalEdgeStyle;rounded=0;orthogonalLoop=1;jettySize=auto;html=1;fillColor=#d5e8d4;strokeColor=#82b366;" parent="sP9vwEh8VMAq78QCd82c-1" source="sP9vwEh8VMAq78QCd82c-226" target="sP9vwEh8VMAq78QCd82c-240" edge="1">
          <mxGeometry relative="1" as="geometry" />
        </mxCell>
        <mxCell id="sP9vwEh8VMAq78QCd82c-225" style="edgeStyle=orthogonalEdgeStyle;rounded=0;orthogonalLoop=1;jettySize=auto;html=1;exitX=0.75;exitY=0;exitDx=0;exitDy=0;entryX=0.25;entryY=1;entryDx=0;entryDy=0;fillColor=#d5e8d4;strokeColor=#82b366;" parent="sP9vwEh8VMAq78QCd82c-1" source="sP9vwEh8VMAq78QCd82c-226" target="sP9vwEh8VMAq78QCd82c-236" edge="1">
          <mxGeometry relative="1" as="geometry">
            <Array as="points">
              <mxPoint x="142" y="630" />
              <mxPoint x="193" y="630" />
            </Array>
          </mxGeometry>
        </mxCell>
        <mxCell id="sP9vwEh8VMAq78QCd82c-226" value="InfluxDB &lt;br&gt;{IF-Version}" style="rounded=1;whiteSpace=wrap;html=1;fillColor=#d5e8d4;strokeColor=#82b366;" parent="sP9vwEh8VMAq78QCd82c-1" vertex="1">
          <mxGeometry x="80.25" y="640" width="82.5" height="30" as="geometry" />
        </mxCell>
        <mxCell id="sP9vwEh8VMAq78QCd82c-227" value="" style="edgeStyle=orthogonalEdgeStyle;rounded=0;orthogonalLoop=1;jettySize=auto;html=1;" parent="sP9vwEh8VMAq78QCd82c-1" source="sP9vwEh8VMAq78QCd82c-229" target="sP9vwEh8VMAq78QCd82c-236" edge="1">
          <mxGeometry relative="1" as="geometry" />
        </mxCell>
        <mxCell id="sP9vwEh8VMAq78QCd82c-228" style="edgeStyle=orthogonalEdgeStyle;rounded=0;orthogonalLoop=1;jettySize=auto;html=1;exitX=0.25;exitY=0;exitDx=0;exitDy=0;entryX=0.75;entryY=1;entryDx=0;entryDy=0;" parent="sP9vwEh8VMAq78QCd82c-1" source="sP9vwEh8VMAq78QCd82c-229" target="sP9vwEh8VMAq78QCd82c-240" edge="1">
          <mxGeometry relative="1" as="geometry">
            <Array as="points">
              <mxPoint x="193" y="620" />
              <mxPoint x="141" y="620" />
              <mxPoint x="141" y="600" />
            </Array>
          </mxGeometry>
        </mxCell>
        <mxCell id="sP9vwEh8VMAq78QCd82c-229" value="MySQL&lt;br&gt;{My-Version}" style="rounded=1;whiteSpace=wrap;html=1;fillColor=#d5e8d4;strokeColor=#82b366;" parent="sP9vwEh8VMAq78QCd82c-1" vertex="1">
          <mxGeometry x="172.75" y="640" width="82.5" height="30" as="geometry" />
        </mxCell>
        <mxCell id="sP9vwEh8VMAq78QCd82c-230" style="edgeStyle=orthogonalEdgeStyle;rounded=0;orthogonalLoop=1;jettySize=auto;html=1;exitX=0.25;exitY=0;exitDx=0;exitDy=0;entryX=0.75;entryY=1;entryDx=0;entryDy=0;fillColor=#e1d5e7;strokeColor=#9673a6;" parent="sP9vwEh8VMAq78QCd82c-1" source="sP9vwEh8VMAq78QCd82c-232" target="sP9vwEh8VMAq78QCd82c-236" edge="1">
          <mxGeometry relative="1" as="geometry" />
        </mxCell>
        <mxCell id="sP9vwEh8VMAq78QCd82c-231" style="edgeStyle=orthogonalEdgeStyle;rounded=0;orthogonalLoop=1;jettySize=auto;html=1;entryX=0.5;entryY=1;entryDx=0;entryDy=0;fillColor=#e1d5e7;strokeColor=#9673a6;" parent="sP9vwEh8VMAq78QCd82c-1" source="sP9vwEh8VMAq78QCd82c-232" target="sP9vwEh8VMAq78QCd82c-238" edge="1">
          <mxGeometry relative="1" as="geometry" />
        </mxCell>
        <mxCell id="sP9vwEh8VMAq78QCd82c-232" value="RabbitMQ&lt;br&gt;{RM-Version}" style="rounded=1;whiteSpace=wrap;html=1;fillColor=#d5e8d4;strokeColor=#82b366;" parent="sP9vwEh8VMAq78QCd82c-1" vertex="1">
          <mxGeometry x="263.75" y="640" width="82.5" height="30" as="geometry" />
        </mxCell>
        <mxCell id="sP9vwEh8VMAq78QCd82c-233" style="edgeStyle=orthogonalEdgeStyle;rounded=0;orthogonalLoop=1;jettySize=auto;html=1;exitX=0.75;exitY=0;exitDx=0;exitDy=0;entryX=0;entryY=0.75;entryDx=0;entryDy=0;fillColor=#d5e8d4;strokeColor=#82b366;" parent="sP9vwEh8VMAq78QCd82c-1" source="sP9vwEh8VMAq78QCd82c-236" target="sP9vwEh8VMAq78QCd82c-238" edge="1">
          <mxGeometry relative="1" as="geometry" />
        </mxCell>
        <mxCell id="sP9vwEh8VMAq78QCd82c-234" style="edgeStyle=orthogonalEdgeStyle;rounded=0;orthogonalLoop=1;jettySize=auto;html=1;exitX=0.5;exitY=0;exitDx=0;exitDy=0;entryX=1;entryY=0.5;entryDx=0;entryDy=0;" parent="sP9vwEh8VMAq78QCd82c-1" source="sP9vwEh8VMAq78QCd82c-236" target="sP9vwEh8VMAq78QCd82c-255" edge="1">
          <mxGeometry relative="1" as="geometry">
            <mxPoint x="162.75" y="485" as="targetPoint" />
          </mxGeometry>
        </mxCell>
        <mxCell id="sP9vwEh8VMAq78QCd82c-235" style="edgeStyle=orthogonalEdgeStyle;rounded=0;orthogonalLoop=1;jettySize=auto;html=1;entryX=1;entryY=0.5;entryDx=0;entryDy=0;" parent="sP9vwEh8VMAq78QCd82c-1" source="sP9vwEh8VMAq78QCd82c-236" target="sP9vwEh8VMAq78QCd82c-254" edge="1">
          <mxGeometry relative="1" as="geometry">
            <Array as="points">
              <mxPoint x="213" y="435" />
            </Array>
          </mxGeometry>
        </mxCell>
        <mxCell id="sP9vwEh8VMAq78QCd82c-236" value="ISS-API" style="rounded=1;whiteSpace=wrap;html=1;fillColor=#f8cecc;strokeColor=#b85450;" parent="sP9vwEh8VMAq78QCd82c-1" vertex="1">
          <mxGeometry x="172" y="570" width="82.5" height="30" as="geometry" />
        </mxCell>
        <mxCell id="sP9vwEh8VMAq78QCd82c-237" style="edgeStyle=orthogonalEdgeStyle;rounded=0;orthogonalLoop=1;jettySize=auto;html=1;exitX=0;exitY=0.5;exitDx=0;exitDy=0;entryX=1;entryY=0.5;entryDx=0;entryDy=0;fillColor=#d5e8d4;strokeColor=#82b366;" parent="sP9vwEh8VMAq78QCd82c-1" source="sP9vwEh8VMAq78QCd82c-238" target="sP9vwEh8VMAq78QCd82c-223" edge="1">
          <mxGeometry relative="1" as="geometry" />
        </mxCell>
        <mxCell id="sP9vwEh8VMAq78QCd82c-238" value="ISS-Web" style="rounded=1;whiteSpace=wrap;html=1;fillColor=#f8cecc;strokeColor=#b85450;" parent="sP9vwEh8VMAq78QCd82c-1" vertex="1">
          <mxGeometry x="263.75" y="520" width="82.5" height="30" as="geometry" />
        </mxCell>
        <mxCell id="sP9vwEh8VMAq78QCd82c-239" style="edgeStyle=orthogonalEdgeStyle;rounded=0;orthogonalLoop=1;jettySize=auto;html=1;exitX=0.5;exitY=0;exitDx=0;exitDy=0;entryX=0.5;entryY=1;entryDx=0;entryDy=0;fillColor=#d5e8d4;strokeColor=#82b366;" parent="sP9vwEh8VMAq78QCd82c-1" source="sP9vwEh8VMAq78QCd82c-240" target="sP9vwEh8VMAq78QCd82c-223" edge="1">
          <mxGeometry relative="1" as="geometry" />
        </mxCell>
        <mxCell id="sP9vwEh8VMAq78QCd82c-240" value="leewell-tools" style="rounded=1;whiteSpace=wrap;html=1;fillColor=#f8cecc;strokeColor=#b85450;" parent="sP9vwEh8VMAq78QCd82c-1" vertex="1">
          <mxGeometry x="80.25" y="570" width="82.5" height="30" as="geometry" />
        </mxCell>
        <mxCell id="sP9vwEh8VMAq78QCd82c-241" value="Windows Server {WS-Version}" style="rounded=0;whiteSpace=wrap;html=1;" parent="sP9vwEh8VMAq78QCd82c-1" vertex="1">
          <mxGeometry x="35" y="380" width="185" height="30" as="geometry" />
        </mxCell>
        <mxCell id="sP9vwEh8VMAq78QCd82c-242" value="" style="rounded=0;whiteSpace=wrap;html=1;" parent="sP9vwEh8VMAq78QCd82c-1" vertex="1">
          <mxGeometry x="440" y="380" width="130" height="270" as="geometry" />
        </mxCell>
        <mxCell id="sP9vwEh8VMAq78QCd82c-243" style="edgeStyle=orthogonalEdgeStyle;rounded=0;orthogonalLoop=1;jettySize=auto;html=1;exitX=0;exitY=0;exitDx=0;exitDy=10;exitPerimeter=0;entryX=1;entryY=0.5;entryDx=0;entryDy=0;fillColor=#ffe6cc;strokeColor=#d79b00;" parent="sP9vwEh8VMAq78QCd82c-1" source="sP9vwEh8VMAq78QCd82c-244" target="sP9vwEh8VMAq78QCd82c-236" edge="1">
          <mxGeometry relative="1" as="geometry" />
        </mxCell>
        <mxCell id="sP9vwEh8VMAq78QCd82c-244" value="Controller" style="shape=cube;whiteSpace=wrap;html=1;boundedLbl=1;backgroundOutline=1;darkOpacity=0.05;darkOpacity2=0.1;" parent="sP9vwEh8VMAq78QCd82c-1" vertex="1">
          <mxGeometry x="460" y="440" width="90" height="40" as="geometry" />
        </mxCell>
        <mxCell id="sP9vwEh8VMAq78QCd82c-245" style="edgeStyle=orthogonalEdgeStyle;rounded=0;orthogonalLoop=1;jettySize=auto;html=1;entryX=1;entryY=0.5;entryDx=0;entryDy=0;fillColor=#ffe6cc;strokeColor=#d79b00;" parent="sP9vwEh8VMAq78QCd82c-1" source="sP9vwEh8VMAq78QCd82c-246" target="sP9vwEh8VMAq78QCd82c-236" edge="1">
          <mxGeometry relative="1" as="geometry" />
        </mxCell>
        <mxCell id="sP9vwEh8VMAq78QCd82c-246" value="Controller" style="shape=cube;whiteSpace=wrap;html=1;boundedLbl=1;backgroundOutline=1;darkOpacity=0.05;darkOpacity2=0.1;" parent="sP9vwEh8VMAq78QCd82c-1" vertex="1">
          <mxGeometry x="460" y="520" width="90" height="40" as="geometry" />
        </mxCell>
        <mxCell id="sP9vwEh8VMAq78QCd82c-247" style="edgeStyle=orthogonalEdgeStyle;rounded=0;orthogonalLoop=1;jettySize=auto;html=1;exitX=0;exitY=0;exitDx=0;exitDy=10;exitPerimeter=0;entryX=1;entryY=0.5;entryDx=0;entryDy=0;fillColor=#ffe6cc;strokeColor=#d79b00;" parent="sP9vwEh8VMAq78QCd82c-1" source="sP9vwEh8VMAq78QCd82c-249" target="sP9vwEh8VMAq78QCd82c-236" edge="1">
          <mxGeometry relative="1" as="geometry" />
        </mxCell>
        <mxCell id="sP9vwEh8VMAq78QCd82c-248" value="MQTT" style="edgeLabel;html=1;align=center;verticalAlign=middle;resizable=0;points=[];fontSize=7;" parent="sP9vwEh8VMAq78QCd82c-247" vertex="1" connectable="0">
          <mxGeometry x="0.8933" y="-1" relative="1" as="geometry">
            <mxPoint x="153" y="-44" as="offset" />
          </mxGeometry>
        </mxCell>
        <mxCell id="sP9vwEh8VMAq78QCd82c-249" value="Controller" style="shape=cube;whiteSpace=wrap;html=1;boundedLbl=1;backgroundOutline=1;darkOpacity=0.05;darkOpacity2=0.1;" parent="sP9vwEh8VMAq78QCd82c-1" vertex="1">
          <mxGeometry x="460" y="600" width="90" height="40" as="geometry" />
        </mxCell>
        <mxCell id="sP9vwEh8VMAq78QCd82c-250" value="QC 2202" style="rounded=0;whiteSpace=wrap;html=1;" parent="sP9vwEh8VMAq78QCd82c-1" vertex="1">
          <mxGeometry x="440" y="380" width="130" height="20" as="geometry" />
        </mxCell>
        <mxCell id="sP9vwEh8VMAq78QCd82c-251" value="PT PH" style="rounded=0;whiteSpace=wrap;html=1;" parent="sP9vwEh8VMAq78QCd82c-1" vertex="1">
          <mxGeometry x="440" y="400" width="130" height="20" as="geometry" />
        </mxCell>
        <mxCell id="sP9vwEh8VMAq78QCd82c-252" value="Boom" style="rounded=0;whiteSpace=wrap;html=1;" parent="sP9vwEh8VMAq78QCd82c-1" vertex="1">
          <mxGeometry x="440" y="490" width="130" height="20" as="geometry" />
        </mxCell>
        <mxCell id="sP9vwEh8VMAq78QCd82c-253" value="etc." style="rounded=0;whiteSpace=wrap;html=1;" parent="sP9vwEh8VMAq78QCd82c-1" vertex="1">
          <mxGeometry x="440" y="570" width="130" height="20" as="geometry" />
        </mxCell>
        <mxCell id="sP9vwEh8VMAq78QCd82c-254" value="Leewell Data Input Service" style="rounded=1;whiteSpace=wrap;html=1;fillColor=#fff2cc;strokeColor=#d6b656;" parent="sP9vwEh8VMAq78QCd82c-1" vertex="1">
          <mxGeometry x="71.5" y="420" width="100" height="30" as="geometry" />
        </mxCell>
        <mxCell id="sP9vwEh8VMAq78QCd82c-255" value="Leewell Feature Data Handle" style="rounded=1;whiteSpace=wrap;html=1;fillColor=#fff2cc;strokeColor=#d6b656;" parent="sP9vwEh8VMAq78QCd82c-1" vertex="1">
          <mxGeometry x="71.5" y="470" width="100" height="30" as="geometry" />
        </mxCell>
        <mxCell id="sP9vwEh8VMAq78QCd82c-256" value="" style="rounded=0;whiteSpace=wrap;html=1;" parent="sP9vwEh8VMAq78QCd82c-1" vertex="1">
          <mxGeometry x="35" y="710" width="355" height="310" as="geometry" />
        </mxCell>
        <mxCell id="sP9vwEh8VMAq78QCd82c-257" value="ECMS&lt;br&gt;QC etc." style="rounded=0;whiteSpace=wrap;html=1;fillColor=#dae8fc;strokeColor=#6c8ebf;" parent="sP9vwEh8VMAq78QCd82c-1" vertex="1">
          <mxGeometry x="285" y="710" width="105" height="40" as="geometry" />
        </mxCell>
        <mxCell id="sP9vwEh8VMAq78QCd82c-258" value="Nginx&lt;br&gt;{NG-Version}" style="rounded=1;whiteSpace=wrap;html=1;fillColor=#d5e8d4;strokeColor=#82b366;" parent="sP9vwEh8VMAq78QCd82c-1" vertex="1">
          <mxGeometry x="80.25" y="850" width="82.5" height="30" as="geometry" />
        </mxCell>
        <mxCell id="sP9vwEh8VMAq78QCd82c-259" value="" style="edgeStyle=orthogonalEdgeStyle;rounded=0;orthogonalLoop=1;jettySize=auto;html=1;fillColor=#d5e8d4;strokeColor=#82b366;" parent="sP9vwEh8VMAq78QCd82c-1" source="sP9vwEh8VMAq78QCd82c-261" target="sP9vwEh8VMAq78QCd82c-275" edge="1">
          <mxGeometry relative="1" as="geometry" />
        </mxCell>
        <mxCell id="sP9vwEh8VMAq78QCd82c-260" style="edgeStyle=orthogonalEdgeStyle;rounded=0;orthogonalLoop=1;jettySize=auto;html=1;exitX=0.75;exitY=0;exitDx=0;exitDy=0;entryX=0.25;entryY=1;entryDx=0;entryDy=0;fillColor=#d5e8d4;strokeColor=#82b366;" parent="sP9vwEh8VMAq78QCd82c-1" source="sP9vwEh8VMAq78QCd82c-261" target="sP9vwEh8VMAq78QCd82c-271" edge="1">
          <mxGeometry relative="1" as="geometry">
            <Array as="points">
              <mxPoint x="142" y="960" />
              <mxPoint x="193" y="960" />
            </Array>
          </mxGeometry>
        </mxCell>
        <mxCell id="sP9vwEh8VMAq78QCd82c-261" value="InfluxDB &lt;br&gt;{IF-Version}" style="rounded=1;whiteSpace=wrap;html=1;fillColor=#d5e8d4;strokeColor=#82b366;" parent="sP9vwEh8VMAq78QCd82c-1" vertex="1">
          <mxGeometry x="80.25" y="970" width="82.5" height="30" as="geometry" />
        </mxCell>
        <mxCell id="sP9vwEh8VMAq78QCd82c-262" value="" style="edgeStyle=orthogonalEdgeStyle;rounded=0;orthogonalLoop=1;jettySize=auto;html=1;" parent="sP9vwEh8VMAq78QCd82c-1" source="sP9vwEh8VMAq78QCd82c-264" target="sP9vwEh8VMAq78QCd82c-271" edge="1">
          <mxGeometry relative="1" as="geometry" />
        </mxCell>
        <mxCell id="sP9vwEh8VMAq78QCd82c-263" style="edgeStyle=orthogonalEdgeStyle;rounded=0;orthogonalLoop=1;jettySize=auto;html=1;exitX=0.25;exitY=0;exitDx=0;exitDy=0;entryX=0.75;entryY=1;entryDx=0;entryDy=0;" parent="sP9vwEh8VMAq78QCd82c-1" source="sP9vwEh8VMAq78QCd82c-264" target="sP9vwEh8VMAq78QCd82c-275" edge="1">
          <mxGeometry relative="1" as="geometry">
            <Array as="points">
              <mxPoint x="193" y="950" />
              <mxPoint x="141" y="950" />
              <mxPoint x="141" y="930" />
            </Array>
          </mxGeometry>
        </mxCell>
        <mxCell id="sP9vwEh8VMAq78QCd82c-264" value="MySQL&lt;br&gt;{My-Version}" style="rounded=1;whiteSpace=wrap;html=1;fillColor=#d5e8d4;strokeColor=#82b366;" parent="sP9vwEh8VMAq78QCd82c-1" vertex="1">
          <mxGeometry x="172.75" y="970" width="82.5" height="30" as="geometry" />
        </mxCell>
        <mxCell id="sP9vwEh8VMAq78QCd82c-265" style="edgeStyle=orthogonalEdgeStyle;rounded=0;orthogonalLoop=1;jettySize=auto;html=1;exitX=0.25;exitY=0;exitDx=0;exitDy=0;entryX=0.75;entryY=1;entryDx=0;entryDy=0;fillColor=#e1d5e7;strokeColor=#9673a6;" parent="sP9vwEh8VMAq78QCd82c-1" source="sP9vwEh8VMAq78QCd82c-267" target="sP9vwEh8VMAq78QCd82c-271" edge="1">
          <mxGeometry relative="1" as="geometry" />
        </mxCell>
        <mxCell id="sP9vwEh8VMAq78QCd82c-266" style="edgeStyle=orthogonalEdgeStyle;rounded=0;orthogonalLoop=1;jettySize=auto;html=1;entryX=0.5;entryY=1;entryDx=0;entryDy=0;fillColor=#e1d5e7;strokeColor=#9673a6;" parent="sP9vwEh8VMAq78QCd82c-1" source="sP9vwEh8VMAq78QCd82c-267" target="sP9vwEh8VMAq78QCd82c-273" edge="1">
          <mxGeometry relative="1" as="geometry" />
        </mxCell>
        <mxCell id="sP9vwEh8VMAq78QCd82c-267" value="RabbitMQ&lt;br&gt;{RM-Version}" style="rounded=1;whiteSpace=wrap;html=1;fillColor=#d5e8d4;strokeColor=#82b366;" parent="sP9vwEh8VMAq78QCd82c-1" vertex="1">
          <mxGeometry x="263.75" y="970" width="82.5" height="30" as="geometry" />
        </mxCell>
        <mxCell id="sP9vwEh8VMAq78QCd82c-268" style="edgeStyle=orthogonalEdgeStyle;rounded=0;orthogonalLoop=1;jettySize=auto;html=1;exitX=0.75;exitY=0;exitDx=0;exitDy=0;entryX=0;entryY=0.75;entryDx=0;entryDy=0;fillColor=#d5e8d4;strokeColor=#82b366;" parent="sP9vwEh8VMAq78QCd82c-1" source="sP9vwEh8VMAq78QCd82c-271" target="sP9vwEh8VMAq78QCd82c-273" edge="1">
          <mxGeometry relative="1" as="geometry" />
        </mxCell>
        <mxCell id="sP9vwEh8VMAq78QCd82c-269" style="edgeStyle=orthogonalEdgeStyle;rounded=0;orthogonalLoop=1;jettySize=auto;html=1;exitX=0.5;exitY=0;exitDx=0;exitDy=0;entryX=1;entryY=0.5;entryDx=0;entryDy=0;" parent="sP9vwEh8VMAq78QCd82c-1" source="sP9vwEh8VMAq78QCd82c-271" target="sP9vwEh8VMAq78QCd82c-290" edge="1">
          <mxGeometry relative="1" as="geometry">
            <mxPoint x="162.75" y="815" as="targetPoint" />
          </mxGeometry>
        </mxCell>
        <mxCell id="sP9vwEh8VMAq78QCd82c-270" style="edgeStyle=orthogonalEdgeStyle;rounded=0;orthogonalLoop=1;jettySize=auto;html=1;entryX=1;entryY=0.5;entryDx=0;entryDy=0;" parent="sP9vwEh8VMAq78QCd82c-1" source="sP9vwEh8VMAq78QCd82c-271" target="sP9vwEh8VMAq78QCd82c-289" edge="1">
          <mxGeometry relative="1" as="geometry">
            <Array as="points">
              <mxPoint x="213" y="765" />
            </Array>
          </mxGeometry>
        </mxCell>
        <mxCell id="sP9vwEh8VMAq78QCd82c-271" value="ISS-API" style="rounded=1;whiteSpace=wrap;html=1;fillColor=#f8cecc;strokeColor=#b85450;" parent="sP9vwEh8VMAq78QCd82c-1" vertex="1">
          <mxGeometry x="172" y="900" width="82.5" height="30" as="geometry" />
        </mxCell>
        <mxCell id="sP9vwEh8VMAq78QCd82c-272" style="edgeStyle=orthogonalEdgeStyle;rounded=0;orthogonalLoop=1;jettySize=auto;html=1;exitX=0;exitY=0.5;exitDx=0;exitDy=0;entryX=1;entryY=0.5;entryDx=0;entryDy=0;fillColor=#d5e8d4;strokeColor=#82b366;" parent="sP9vwEh8VMAq78QCd82c-1" source="sP9vwEh8VMAq78QCd82c-273" target="sP9vwEh8VMAq78QCd82c-258" edge="1">
          <mxGeometry relative="1" as="geometry" />
        </mxCell>
        <mxCell id="sP9vwEh8VMAq78QCd82c-273" value="ISS-Web" style="rounded=1;whiteSpace=wrap;html=1;fillColor=#f8cecc;strokeColor=#b85450;" parent="sP9vwEh8VMAq78QCd82c-1" vertex="1">
          <mxGeometry x="263.75" y="850" width="82.5" height="30" as="geometry" />
        </mxCell>
        <mxCell id="sP9vwEh8VMAq78QCd82c-274" style="edgeStyle=orthogonalEdgeStyle;rounded=0;orthogonalLoop=1;jettySize=auto;html=1;exitX=0.5;exitY=0;exitDx=0;exitDy=0;entryX=0.5;entryY=1;entryDx=0;entryDy=0;fillColor=#d5e8d4;strokeColor=#82b366;" parent="sP9vwEh8VMAq78QCd82c-1" source="sP9vwEh8VMAq78QCd82c-275" target="sP9vwEh8VMAq78QCd82c-258" edge="1">
          <mxGeometry relative="1" as="geometry" />
        </mxCell>
        <mxCell id="sP9vwEh8VMAq78QCd82c-275" value="leewell-tools" style="rounded=1;whiteSpace=wrap;html=1;fillColor=#f8cecc;strokeColor=#b85450;" parent="sP9vwEh8VMAq78QCd82c-1" vertex="1">
          <mxGeometry x="80.25" y="900" width="82.5" height="30" as="geometry" />
        </mxCell>
        <mxCell id="sP9vwEh8VMAq78QCd82c-276" value="Windows Server {WS-Version}" style="rounded=0;whiteSpace=wrap;html=1;" parent="sP9vwEh8VMAq78QCd82c-1" vertex="1">
          <mxGeometry x="35" y="710" width="185" height="30" as="geometry" />
        </mxCell>
        <mxCell id="sP9vwEh8VMAq78QCd82c-277" value="" style="rounded=0;whiteSpace=wrap;html=1;" parent="sP9vwEh8VMAq78QCd82c-1" vertex="1">
          <mxGeometry x="440" y="710" width="130" height="270" as="geometry" />
        </mxCell>
        <mxCell id="sP9vwEh8VMAq78QCd82c-278" style="edgeStyle=orthogonalEdgeStyle;rounded=0;orthogonalLoop=1;jettySize=auto;html=1;exitX=0;exitY=0;exitDx=0;exitDy=10;exitPerimeter=0;entryX=1;entryY=0.5;entryDx=0;entryDy=0;fillColor=#ffe6cc;strokeColor=#d79b00;" parent="sP9vwEh8VMAq78QCd82c-1" source="sP9vwEh8VMAq78QCd82c-279" target="sP9vwEh8VMAq78QCd82c-271" edge="1">
          <mxGeometry relative="1" as="geometry" />
        </mxCell>
        <mxCell id="sP9vwEh8VMAq78QCd82c-279" value="Controller" style="shape=cube;whiteSpace=wrap;html=1;boundedLbl=1;backgroundOutline=1;darkOpacity=0.05;darkOpacity2=0.1;" parent="sP9vwEh8VMAq78QCd82c-1" vertex="1">
          <mxGeometry x="460" y="770" width="90" height="40" as="geometry" />
        </mxCell>
        <mxCell id="sP9vwEh8VMAq78QCd82c-280" style="edgeStyle=orthogonalEdgeStyle;rounded=0;orthogonalLoop=1;jettySize=auto;html=1;entryX=1;entryY=0.5;entryDx=0;entryDy=0;fillColor=#ffe6cc;strokeColor=#d79b00;" parent="sP9vwEh8VMAq78QCd82c-1" source="sP9vwEh8VMAq78QCd82c-281" target="sP9vwEh8VMAq78QCd82c-271" edge="1">
          <mxGeometry relative="1" as="geometry" />
        </mxCell>
        <mxCell id="sP9vwEh8VMAq78QCd82c-281" value="Controller" style="shape=cube;whiteSpace=wrap;html=1;boundedLbl=1;backgroundOutline=1;darkOpacity=0.05;darkOpacity2=0.1;" parent="sP9vwEh8VMAq78QCd82c-1" vertex="1">
          <mxGeometry x="460" y="850" width="90" height="40" as="geometry" />
        </mxCell>
        <mxCell id="sP9vwEh8VMAq78QCd82c-282" style="edgeStyle=orthogonalEdgeStyle;rounded=0;orthogonalLoop=1;jettySize=auto;html=1;exitX=0;exitY=0;exitDx=0;exitDy=10;exitPerimeter=0;entryX=1;entryY=0.5;entryDx=0;entryDy=0;fillColor=#ffe6cc;strokeColor=#d79b00;" parent="sP9vwEh8VMAq78QCd82c-1" source="sP9vwEh8VMAq78QCd82c-284" target="sP9vwEh8VMAq78QCd82c-271" edge="1">
          <mxGeometry relative="1" as="geometry" />
        </mxCell>
        <mxCell id="sP9vwEh8VMAq78QCd82c-283" value="MQTT" style="edgeLabel;html=1;align=center;verticalAlign=middle;resizable=0;points=[];fontSize=7;" parent="sP9vwEh8VMAq78QCd82c-282" vertex="1" connectable="0">
          <mxGeometry x="0.8933" y="-1" relative="1" as="geometry">
            <mxPoint x="143" y="-49" as="offset" />
          </mxGeometry>
        </mxCell>
        <mxCell id="sP9vwEh8VMAq78QCd82c-284" value="Controller" style="shape=cube;whiteSpace=wrap;html=1;boundedLbl=1;backgroundOutline=1;darkOpacity=0.05;darkOpacity2=0.1;" parent="sP9vwEh8VMAq78QCd82c-1" vertex="1">
          <mxGeometry x="460" y="930" width="90" height="40" as="geometry" />
        </mxCell>
        <mxCell id="sP9vwEh8VMAq78QCd82c-285" value="QC etc." style="rounded=0;whiteSpace=wrap;html=1;" parent="sP9vwEh8VMAq78QCd82c-1" vertex="1">
          <mxGeometry x="440" y="710" width="130" height="20" as="geometry" />
        </mxCell>
        <mxCell id="sP9vwEh8VMAq78QCd82c-286" value="PT PH" style="rounded=0;whiteSpace=wrap;html=1;" parent="sP9vwEh8VMAq78QCd82c-1" vertex="1">
          <mxGeometry x="440" y="730" width="130" height="20" as="geometry" />
        </mxCell>
        <mxCell id="sP9vwEh8VMAq78QCd82c-287" value="Boom" style="rounded=0;whiteSpace=wrap;html=1;" parent="sP9vwEh8VMAq78QCd82c-1" vertex="1">
          <mxGeometry x="440" y="820" width="130" height="20" as="geometry" />
        </mxCell>
        <mxCell id="sP9vwEh8VMAq78QCd82c-288" value="etc." style="rounded=0;whiteSpace=wrap;html=1;" parent="sP9vwEh8VMAq78QCd82c-1" vertex="1">
          <mxGeometry x="440" y="900" width="130" height="20" as="geometry" />
        </mxCell>
        <mxCell id="sP9vwEh8VMAq78QCd82c-289" value="Leewell Data Input Service" style="rounded=1;whiteSpace=wrap;html=1;fillColor=#fff2cc;strokeColor=#d6b656;" parent="sP9vwEh8VMAq78QCd82c-1" vertex="1">
          <mxGeometry x="71.5" y="750" width="100" height="30" as="geometry" />
        </mxCell>
        <mxCell id="sP9vwEh8VMAq78QCd82c-290" value="Leewell Feature Data Handle" style="rounded=1;whiteSpace=wrap;html=1;fillColor=#fff2cc;strokeColor=#d6b656;" parent="sP9vwEh8VMAq78QCd82c-1" vertex="1">
          <mxGeometry x="71.5" y="800" width="100" height="30" as="geometry" />
        </mxCell>
        <mxCell id="sP9vwEh8VMAq78QCd82c-32" value="ESB" style="rounded=0;whiteSpace=wrap;html=1;" parent="1" vertex="1">
          <mxGeometry x="-80" y="615" width="120" height="60" as="geometry" />
        </mxCell>
        <mxCell id="sP9vwEh8VMAq78QCd82c-127" style="edgeStyle=orthogonalEdgeStyle;rounded=0;orthogonalLoop=1;jettySize=auto;html=1;exitX=0;exitY=0.5;exitDx=0;exitDy=0;entryX=1;entryY=0.5;entryDx=0;entryDy=0;" parent="1" source="sP9vwEh8VMAq78QCd82c-181" target="sP9vwEh8VMAq78QCd82c-32" edge="1">
          <mxGeometry relative="1" as="geometry">
            <mxPoint x="280.25" y="365" as="sourcePoint" />
          </mxGeometry>
        </mxCell>
        <mxCell id="sP9vwEh8VMAq78QCd82c-131" value="DataCenter Office" style="swimlane;whiteSpace=wrap;html=1;" parent="1" vertex="1">
          <mxGeometry x="-650" y="455" width="510" height="390" as="geometry" />
        </mxCell>
        <mxCell id="sP9vwEh8VMAq78QCd82c-132" value="" style="rounded=0;whiteSpace=wrap;html=1;" parent="sP9vwEh8VMAq78QCd82c-131" vertex="1">
          <mxGeometry x="59" y="65" width="355" height="315" as="geometry" />
        </mxCell>
        <mxCell id="sP9vwEh8VMAq78QCd82c-133" value="Datacenter&lt;br&gt;Server" style="rounded=0;whiteSpace=wrap;html=1;fillColor=#dae8fc;strokeColor=#6c8ebf;" parent="sP9vwEh8VMAq78QCd82c-131" vertex="1">
          <mxGeometry x="309" y="65" width="105" height="40" as="geometry" />
        </mxCell>
        <mxCell id="sP9vwEh8VMAq78QCd82c-134" value="Nginx&lt;br&gt;{NG-Version}" style="rounded=1;whiteSpace=wrap;html=1;fillColor=#d5e8d4;strokeColor=#82b366;" parent="sP9vwEh8VMAq78QCd82c-131" vertex="1">
          <mxGeometry x="104" y="205" width="82.5" height="30" as="geometry" />
        </mxCell>
        <mxCell id="sP9vwEh8VMAq78QCd82c-135" value="" style="edgeStyle=orthogonalEdgeStyle;rounded=0;orthogonalLoop=1;jettySize=auto;html=1;fillColor=#d5e8d4;strokeColor=#82b366;" parent="sP9vwEh8VMAq78QCd82c-131" source="sP9vwEh8VMAq78QCd82c-137" target="sP9vwEh8VMAq78QCd82c-150" edge="1">
          <mxGeometry relative="1" as="geometry" />
        </mxCell>
        <mxCell id="sP9vwEh8VMAq78QCd82c-136" style="edgeStyle=orthogonalEdgeStyle;rounded=0;orthogonalLoop=1;jettySize=auto;html=1;exitX=0.75;exitY=0;exitDx=0;exitDy=0;entryX=0.25;entryY=1;entryDx=0;entryDy=0;fillColor=#d5e8d4;strokeColor=#82b366;" parent="sP9vwEh8VMAq78QCd82c-131" source="sP9vwEh8VMAq78QCd82c-137" target="sP9vwEh8VMAq78QCd82c-146" edge="1">
          <mxGeometry relative="1" as="geometry">
            <Array as="points">
              <mxPoint x="166" y="315" />
              <mxPoint x="216" y="315" />
            </Array>
          </mxGeometry>
        </mxCell>
        <mxCell id="sP9vwEh8VMAq78QCd82c-137" value="InfluxDB &lt;br&gt;{IF-Version}" style="rounded=1;whiteSpace=wrap;html=1;fillColor=#d5e8d4;strokeColor=#82b366;" parent="sP9vwEh8VMAq78QCd82c-131" vertex="1">
          <mxGeometry x="104" y="325" width="82.5" height="30" as="geometry" />
        </mxCell>
        <mxCell id="sP9vwEh8VMAq78QCd82c-138" value="" style="edgeStyle=orthogonalEdgeStyle;rounded=0;orthogonalLoop=1;jettySize=auto;html=1;" parent="sP9vwEh8VMAq78QCd82c-131" source="sP9vwEh8VMAq78QCd82c-140" target="sP9vwEh8VMAq78QCd82c-146" edge="1">
          <mxGeometry relative="1" as="geometry" />
        </mxCell>
        <mxCell id="sP9vwEh8VMAq78QCd82c-139" style="edgeStyle=orthogonalEdgeStyle;rounded=0;orthogonalLoop=1;jettySize=auto;html=1;exitX=0.25;exitY=0;exitDx=0;exitDy=0;entryX=0.75;entryY=1;entryDx=0;entryDy=0;" parent="sP9vwEh8VMAq78QCd82c-131" source="sP9vwEh8VMAq78QCd82c-140" target="sP9vwEh8VMAq78QCd82c-150" edge="1">
          <mxGeometry relative="1" as="geometry">
            <Array as="points">
              <mxPoint x="217" y="305" />
              <mxPoint x="166" y="305" />
            </Array>
          </mxGeometry>
        </mxCell>
        <mxCell id="sP9vwEh8VMAq78QCd82c-140" value="MySQL&lt;br&gt;{My-Version}" style="rounded=1;whiteSpace=wrap;html=1;fillColor=#d5e8d4;strokeColor=#82b366;" parent="sP9vwEh8VMAq78QCd82c-131" vertex="1">
          <mxGeometry x="196.5" y="325" width="82.5" height="30" as="geometry" />
        </mxCell>
        <mxCell id="sP9vwEh8VMAq78QCd82c-141" style="edgeStyle=orthogonalEdgeStyle;rounded=0;orthogonalLoop=1;jettySize=auto;html=1;exitX=0.25;exitY=0;exitDx=0;exitDy=0;entryX=0.75;entryY=1;entryDx=0;entryDy=0;fillColor=#e1d5e7;strokeColor=#9673a6;" parent="sP9vwEh8VMAq78QCd82c-131" source="sP9vwEh8VMAq78QCd82c-143" target="sP9vwEh8VMAq78QCd82c-146" edge="1">
          <mxGeometry relative="1" as="geometry" />
        </mxCell>
        <mxCell id="sP9vwEh8VMAq78QCd82c-142" style="edgeStyle=orthogonalEdgeStyle;rounded=0;orthogonalLoop=1;jettySize=auto;html=1;entryX=0.5;entryY=1;entryDx=0;entryDy=0;fillColor=#e1d5e7;strokeColor=#9673a6;" parent="sP9vwEh8VMAq78QCd82c-131" source="sP9vwEh8VMAq78QCd82c-143" target="sP9vwEh8VMAq78QCd82c-148" edge="1">
          <mxGeometry relative="1" as="geometry" />
        </mxCell>
        <mxCell id="sP9vwEh8VMAq78QCd82c-143" value="RabbitMQ&lt;br&gt;{RM-Version}" style="rounded=1;whiteSpace=wrap;html=1;fillColor=#d5e8d4;strokeColor=#82b366;" parent="sP9vwEh8VMAq78QCd82c-131" vertex="1">
          <mxGeometry x="287.5" y="325" width="82.5" height="30" as="geometry" />
        </mxCell>
        <mxCell id="sP9vwEh8VMAq78QCd82c-144" style="edgeStyle=orthogonalEdgeStyle;rounded=0;orthogonalLoop=1;jettySize=auto;html=1;exitX=0.75;exitY=0;exitDx=0;exitDy=0;entryX=0;entryY=0.75;entryDx=0;entryDy=0;fillColor=#d5e8d4;strokeColor=#82b366;" parent="sP9vwEh8VMAq78QCd82c-131" source="sP9vwEh8VMAq78QCd82c-146" target="sP9vwEh8VMAq78QCd82c-148" edge="1">
          <mxGeometry relative="1" as="geometry" />
        </mxCell>
        <mxCell id="sP9vwEh8VMAq78QCd82c-145" style="edgeStyle=orthogonalEdgeStyle;rounded=0;orthogonalLoop=1;jettySize=auto;html=1;exitX=0.5;exitY=0;exitDx=0;exitDy=0;entryX=0;entryY=0.5;entryDx=0;entryDy=0;" parent="sP9vwEh8VMAq78QCd82c-131" source="sP9vwEh8VMAq78QCd82c-146" target="sP9vwEh8VMAq78QCd82c-151" edge="1">
          <mxGeometry relative="1" as="geometry" />
        </mxCell>
        <mxCell id="sP9vwEh8VMAq78QCd82c-179" style="edgeStyle=orthogonalEdgeStyle;rounded=0;orthogonalLoop=1;jettySize=auto;html=1;entryX=0;entryY=0.5;entryDx=0;entryDy=0;" parent="sP9vwEh8VMAq78QCd82c-131" source="sP9vwEh8VMAq78QCd82c-146" target="sP9vwEh8VMAq78QCd82c-177" edge="1">
          <mxGeometry relative="1" as="geometry">
            <Array as="points">
              <mxPoint x="250" y="170" />
            </Array>
          </mxGeometry>
        </mxCell>
        <mxCell id="sP9vwEh8VMAq78QCd82c-146" value="ISS-API" style="rounded=1;whiteSpace=wrap;html=1;fillColor=#f8cecc;strokeColor=#b85450;" parent="sP9vwEh8VMAq78QCd82c-131" vertex="1">
          <mxGeometry x="195.75" y="255" width="82.5" height="30" as="geometry" />
        </mxCell>
        <mxCell id="sP9vwEh8VMAq78QCd82c-147" style="edgeStyle=orthogonalEdgeStyle;rounded=0;orthogonalLoop=1;jettySize=auto;html=1;exitX=0;exitY=0.5;exitDx=0;exitDy=0;entryX=1;entryY=0.5;entryDx=0;entryDy=0;fillColor=#d5e8d4;strokeColor=#82b366;" parent="sP9vwEh8VMAq78QCd82c-131" source="sP9vwEh8VMAq78QCd82c-148" target="sP9vwEh8VMAq78QCd82c-134" edge="1">
          <mxGeometry relative="1" as="geometry" />
        </mxCell>
        <mxCell id="sP9vwEh8VMAq78QCd82c-148" value="ISS-Web" style="rounded=1;whiteSpace=wrap;html=1;fillColor=#f8cecc;strokeColor=#b85450;" parent="sP9vwEh8VMAq78QCd82c-131" vertex="1">
          <mxGeometry x="287.5" y="205" width="82.5" height="30" as="geometry" />
        </mxCell>
        <mxCell id="sP9vwEh8VMAq78QCd82c-149" style="edgeStyle=orthogonalEdgeStyle;rounded=0;orthogonalLoop=1;jettySize=auto;html=1;exitX=0.5;exitY=0;exitDx=0;exitDy=0;entryX=0.5;entryY=1;entryDx=0;entryDy=0;fillColor=#d5e8d4;strokeColor=#82b366;" parent="sP9vwEh8VMAq78QCd82c-131" source="sP9vwEh8VMAq78QCd82c-150" target="sP9vwEh8VMAq78QCd82c-134" edge="1">
          <mxGeometry relative="1" as="geometry" />
        </mxCell>
        <mxCell id="sP9vwEh8VMAq78QCd82c-150" value="leewell-tools" style="rounded=1;whiteSpace=wrap;html=1;fillColor=#f8cecc;strokeColor=#b85450;" parent="sP9vwEh8VMAq78QCd82c-131" vertex="1">
          <mxGeometry x="104" y="255" width="82.5" height="30" as="geometry" />
        </mxCell>
        <mxCell id="sP9vwEh8VMAq78QCd82c-151" value="Leewell Data Input Service" style="rounded=1;whiteSpace=wrap;html=1;fillColor=#fff2cc;strokeColor=#d6b656;" parent="sP9vwEh8VMAq78QCd82c-131" vertex="1">
          <mxGeometry x="270" y="115" width="100" height="30" as="geometry" />
        </mxCell>
        <mxCell id="sP9vwEh8VMAq78QCd82c-152" value="Windows Server {WS-Version}" style="rounded=0;whiteSpace=wrap;html=1;" parent="sP9vwEh8VMAq78QCd82c-131" vertex="1">
          <mxGeometry x="59" y="65" width="185" height="30" as="geometry" />
        </mxCell>
        <mxCell id="sP9vwEh8VMAq78QCd82c-177" value="Leewell Feature Data Handle" style="rounded=1;whiteSpace=wrap;html=1;fillColor=#fff2cc;strokeColor=#d6b656;" parent="sP9vwEh8VMAq78QCd82c-131" vertex="1">
          <mxGeometry x="270" y="155" width="100" height="30" as="geometry" />
        </mxCell>
        <mxCell id="sP9vwEh8VMAq78QCd82c-154" value="HTTPS&lt;br&gt;access" style="rounded=0;whiteSpace=wrap;html=1;" parent="1" vertex="1">
          <mxGeometry x="-80" y="345" width="120" height="60" as="geometry" />
        </mxCell>
        <mxCell id="sP9vwEh8VMAq78QCd82c-155" style="edgeStyle=orthogonalEdgeStyle;rounded=0;orthogonalLoop=1;jettySize=auto;html=1;entryX=1;entryY=0.5;entryDx=0;entryDy=0;fillColor=#d5e8d4;strokeColor=#82b366;" parent="1" source="sP9vwEh8VMAq78QCd82c-4" target="sP9vwEh8VMAq78QCd82c-154" edge="1">
          <mxGeometry relative="1" as="geometry">
            <Array as="points">
              <mxPoint x="110" y="415" />
              <mxPoint x="110" y="375" />
            </Array>
          </mxGeometry>
        </mxCell>
        <mxCell id="sP9vwEh8VMAq78QCd82c-184" value="HTTPS 81，83" style="edgeLabel;html=1;align=center;verticalAlign=middle;resizable=0;points=[];fontSize=7;" parent="sP9vwEh8VMAq78QCd82c-155" vertex="1" connectable="0">
          <mxGeometry x="0.8299" y="-1" relative="1" as="geometry">
            <mxPoint as="offset" />
          </mxGeometry>
        </mxCell>
        <mxCell id="sP9vwEh8VMAq78QCd82c-160" style="edgeStyle=orthogonalEdgeStyle;rounded=0;orthogonalLoop=1;jettySize=auto;html=1;entryX=1;entryY=0.5;entryDx=0;entryDy=0;" parent="1" source="sP9vwEh8VMAq78QCd82c-32" target="sP9vwEh8VMAq78QCd82c-151" edge="1">
          <mxGeometry relative="1" as="geometry" />
        </mxCell>
        <mxCell id="sP9vwEh8VMAq78QCd82c-165" style="edgeStyle=orthogonalEdgeStyle;rounded=0;orthogonalLoop=1;jettySize=auto;html=1;entryX=0;entryY=0.5;entryDx=0;entryDy=0;fillColor=#d5e8d4;strokeColor=#82b366;" parent="1" source="sP9vwEh8VMAq78QCd82c-134" target="sP9vwEh8VMAq78QCd82c-154" edge="1">
          <mxGeometry relative="1" as="geometry">
            <Array as="points">
              <mxPoint x="-770" y="635" />
              <mxPoint x="-770" y="375" />
            </Array>
          </mxGeometry>
        </mxCell>
        <mxCell id="sP9vwEh8VMAq78QCd82c-173" style="edgeStyle=orthogonalEdgeStyle;rounded=0;orthogonalLoop=1;jettySize=auto;html=1;exitX=1;exitY=0.5;exitDx=0;exitDy=0;entryX=0;entryY=0.5;entryDx=0;entryDy=0;fillColor=#dae8fc;strokeColor=#6c8ebf;" parent="1" source="sP9vwEh8VMAq78QCd82c-133" target="sP9vwEh8VMAq78QCd82c-46" edge="1">
          <mxGeometry relative="1" as="geometry">
            <Array as="points">
              <mxPoint x="140" y="540" />
              <mxPoint x="140" y="275" />
            </Array>
          </mxGeometry>
        </mxCell>
        <mxCell id="sP9vwEh8VMAq78QCd82c-185" value="RDP" style="edgeLabel;html=1;align=center;verticalAlign=middle;resizable=0;points=[];" parent="sP9vwEh8VMAq78QCd82c-173" vertex="1" connectable="0">
          <mxGeometry x="-0.62" relative="1" as="geometry">
            <mxPoint y="-5" as="offset" />
          </mxGeometry>
        </mxCell>
        <mxCell id="sP9vwEh8VMAq78QCd82c-178" style="edgeStyle=orthogonalEdgeStyle;rounded=0;orthogonalLoop=1;jettySize=auto;html=1;entryX=1;entryY=0.5;entryDx=0;entryDy=0;" parent="1" source="sP9vwEh8VMAq78QCd82c-32" target="sP9vwEh8VMAq78QCd82c-177" edge="1">
          <mxGeometry relative="1" as="geometry" />
        </mxCell>
        <mxCell id="sP9vwEh8VMAq78QCd82c-183" style="edgeStyle=orthogonalEdgeStyle;rounded=0;orthogonalLoop=1;jettySize=auto;html=1;entryX=1;entryY=0.5;entryDx=0;entryDy=0;" parent="1" source="sP9vwEh8VMAq78QCd82c-180" target="sP9vwEh8VMAq78QCd82c-32" edge="1">
          <mxGeometry relative="1" as="geometry" />
        </mxCell>
        <mxCell id="sP9vwEh8VMAq78QCd82c-291" style="edgeStyle=orthogonalEdgeStyle;rounded=0;orthogonalLoop=1;jettySize=auto;html=1;entryX=1;entryY=0.5;entryDx=0;entryDy=0;" parent="1" source="sP9vwEh8VMAq78QCd82c-254" target="sP9vwEh8VMAq78QCd82c-32" edge="1">
          <mxGeometry relative="1" as="geometry" />
        </mxCell>
        <mxCell id="sP9vwEh8VMAq78QCd82c-292" style="edgeStyle=orthogonalEdgeStyle;rounded=0;orthogonalLoop=1;jettySize=auto;html=1;entryX=1;entryY=0.5;entryDx=0;entryDy=0;" parent="1" source="sP9vwEh8VMAq78QCd82c-255" target="sP9vwEh8VMAq78QCd82c-32" edge="1">
          <mxGeometry relative="1" as="geometry" />
        </mxCell>
        <mxCell id="sP9vwEh8VMAq78QCd82c-293" style="edgeStyle=orthogonalEdgeStyle;rounded=0;orthogonalLoop=1;jettySize=auto;html=1;exitX=0;exitY=0.5;exitDx=0;exitDy=0;entryX=1;entryY=0.5;entryDx=0;entryDy=0;" parent="1" source="sP9vwEh8VMAq78QCd82c-289" target="sP9vwEh8VMAq78QCd82c-32" edge="1">
          <mxGeometry relative="1" as="geometry" />
        </mxCell>
        <mxCell id="sP9vwEh8VMAq78QCd82c-294" style="edgeStyle=orthogonalEdgeStyle;rounded=0;orthogonalLoop=1;jettySize=auto;html=1;exitX=0;exitY=0.5;exitDx=0;exitDy=0;entryX=1;entryY=0.5;entryDx=0;entryDy=0;" parent="1" source="sP9vwEh8VMAq78QCd82c-290" target="sP9vwEh8VMAq78QCd82c-32" edge="1">
          <mxGeometry relative="1" as="geometry" />
        </mxCell>
        <mxCell id="sP9vwEh8VMAq78QCd82c-297" style="edgeStyle=orthogonalEdgeStyle;rounded=0;orthogonalLoop=1;jettySize=auto;html=1;exitX=1;exitY=0.5;exitDx=0;exitDy=0;entryX=0;entryY=0.5;entryDx=0;entryDy=0;fillColor=#dae8fc;strokeColor=#6c8ebf;" parent="1" source="sP9vwEh8VMAq78QCd82c-133" target="sP9vwEh8VMAq78QCd82c-241" edge="1">
          <mxGeometry relative="1" as="geometry">
            <Array as="points">
              <mxPoint x="140" y="540" />
              <mxPoint x="140" y="605" />
            </Array>
          </mxGeometry>
        </mxCell>
        <mxCell id="sP9vwEh8VMAq78QCd82c-299" style="edgeStyle=orthogonalEdgeStyle;rounded=0;orthogonalLoop=1;jettySize=auto;html=1;exitX=1;exitY=0.5;exitDx=0;exitDy=0;entryX=0;entryY=0.5;entryDx=0;entryDy=0;fillColor=#dae8fc;strokeColor=#6c8ebf;" parent="1" source="sP9vwEh8VMAq78QCd82c-133" target="sP9vwEh8VMAq78QCd82c-276" edge="1">
          <mxGeometry relative="1" as="geometry">
            <Array as="points">
              <mxPoint x="140" y="540" />
              <mxPoint x="140" y="935" />
            </Array>
          </mxGeometry>
        </mxCell>
        <mxCell id="sP9vwEh8VMAq78QCd82c-300" style="edgeStyle=orthogonalEdgeStyle;rounded=0;orthogonalLoop=1;jettySize=auto;html=1;exitX=0;exitY=0.5;exitDx=0;exitDy=0;entryX=1;entryY=0.5;entryDx=0;entryDy=0;fillColor=#d5e8d4;strokeColor=#82b366;" parent="1" source="sP9vwEh8VMAq78QCd82c-223" target="sP9vwEh8VMAq78QCd82c-154" edge="1">
          <mxGeometry relative="1" as="geometry">
            <Array as="points">
              <mxPoint x="110" y="745" />
              <mxPoint x="110" y="375" />
            </Array>
          </mxGeometry>
        </mxCell>
        <mxCell id="sP9vwEh8VMAq78QCd82c-301" style="edgeStyle=orthogonalEdgeStyle;rounded=0;orthogonalLoop=1;jettySize=auto;html=1;exitX=0;exitY=0.5;exitDx=0;exitDy=0;entryX=1;entryY=0.5;entryDx=0;entryDy=0;fillColor=#d5e8d4;strokeColor=#82b366;" parent="1" source="sP9vwEh8VMAq78QCd82c-258" target="sP9vwEh8VMAq78QCd82c-154" edge="1">
          <mxGeometry relative="1" as="geometry">
            <mxPoint x="70" y="398.3333333333332" as="targetPoint" />
            <Array as="points">
              <mxPoint x="110" y="1075" />
              <mxPoint x="110" y="375" />
            </Array>
          </mxGeometry>
        </mxCell>
        <mxCell id="sP9vwEh8VMAq78QCd82c-306" value="legend" style="swimlane;whiteSpace=wrap;html=1;" parent="1" vertex="1">
          <mxGeometry x="-590" y="890" width="450" height="120" as="geometry" />
        </mxCell>
        <mxCell id="sP9vwEh8VMAq78QCd82c-303" value="M&lt;span style=&quot;background-color: transparent; color: light-dark(rgb(0, 0, 0), rgb(255, 255, 255));&quot;&gt;iddleware&lt;/span&gt;" style="rounded=1;whiteSpace=wrap;html=1;fillColor=#d5e8d4;strokeColor=#82b366;" parent="sP9vwEh8VMAq78QCd82c-306" vertex="1">
          <mxGeometry x="7.5" y="30" width="82.5" height="30" as="geometry" />
        </mxCell>
        <mxCell id="sP9vwEh8VMAq78QCd82c-304" value="Core Service" style="rounded=1;whiteSpace=wrap;html=1;fillColor=#f8cecc;strokeColor=#b85450;" parent="sP9vwEh8VMAq78QCd82c-306" vertex="1">
          <mxGeometry x="150" y="30" width="82.5" height="30" as="geometry" />
        </mxCell>
        <mxCell id="sP9vwEh8VMAq78QCd82c-305" value="Data Transport Service" style="rounded=1;whiteSpace=wrap;html=1;fillColor=#fff2cc;strokeColor=#d6b656;" parent="sP9vwEh8VMAq78QCd82c-306" vertex="1">
          <mxGeometry x="290" y="30" width="150" height="30" as="geometry" />
        </mxCell>
        <mxCell id="sP9vwEh8VMAq78QCd82c-307" value="Server" style="rounded=0;whiteSpace=wrap;html=1;fillColor=#dae8fc;strokeColor=#6c8ebf;" parent="sP9vwEh8VMAq78QCd82c-306" vertex="1">
          <mxGeometry x="370" y="70" width="70" height="30" as="geometry" />
        </mxCell>
        <mxCell id="sP9vwEh8VMAq78QCd82c-308" value="" style="endArrow=classic;startArrow=classic;html=1;rounded=0;" parent="sP9vwEh8VMAq78QCd82c-306" edge="1">
          <mxGeometry width="50" height="50" relative="1" as="geometry">
            <mxPoint x="18.75" y="80" as="sourcePoint" />
            <mxPoint x="78.75" y="80" as="targetPoint" />
          </mxGeometry>
        </mxCell>
        <mxCell id="sP9vwEh8VMAq78QCd82c-309" value="TCP/IP" style="edgeLabel;html=1;align=center;verticalAlign=middle;resizable=0;points=[];" parent="sP9vwEh8VMAq78QCd82c-308" vertex="1" connectable="0">
          <mxGeometry x="-0.1383" relative="1" as="geometry">
            <mxPoint x="4" y="10" as="offset" />
          </mxGeometry>
        </mxCell>
        <mxCell id="sP9vwEh8VMAq78QCd82c-310" value="" style="endArrow=classic;startArrow=classic;html=1;rounded=0;fillColor=#d5e8d4;strokeColor=#82b366;" parent="sP9vwEh8VMAq78QCd82c-306" edge="1">
          <mxGeometry width="50" height="50" relative="1" as="geometry">
            <mxPoint x="90" y="80" as="sourcePoint" />
            <mxPoint x="150" y="80" as="targetPoint" />
          </mxGeometry>
        </mxCell>
        <mxCell id="sP9vwEh8VMAq78QCd82c-311" value="HTTP[S]" style="edgeLabel;html=1;align=center;verticalAlign=middle;resizable=0;points=[];" parent="sP9vwEh8VMAq78QCd82c-310" vertex="1" connectable="0">
          <mxGeometry x="-0.1383" relative="1" as="geometry">
            <mxPoint x="4" y="10" as="offset" />
          </mxGeometry>
        </mxCell>
        <mxCell id="sP9vwEh8VMAq78QCd82c-312" value="" style="endArrow=classic;startArrow=classic;html=1;rounded=0;fillColor=#dae8fc;strokeColor=#6c8ebf;" parent="sP9vwEh8VMAq78QCd82c-306" edge="1">
          <mxGeometry width="50" height="50" relative="1" as="geometry">
            <mxPoint x="160" y="80" as="sourcePoint" />
            <mxPoint x="220" y="80" as="targetPoint" />
          </mxGeometry>
        </mxCell>
        <mxCell id="sP9vwEh8VMAq78QCd82c-313" value="RDP" style="edgeLabel;html=1;align=center;verticalAlign=middle;resizable=0;points=[];" parent="sP9vwEh8VMAq78QCd82c-312" vertex="1" connectable="0">
          <mxGeometry x="-0.1383" relative="1" as="geometry">
            <mxPoint x="4" y="10" as="offset" />
          </mxGeometry>
        </mxCell>
        <mxCell id="sP9vwEh8VMAq78QCd82c-314" value="" style="endArrow=classic;startArrow=classic;html=1;rounded=0;fillColor=#e1d5e7;strokeColor=#9673a6;" parent="sP9vwEh8VMAq78QCd82c-306" edge="1">
          <mxGeometry width="50" height="50" relative="1" as="geometry">
            <mxPoint x="230" y="80" as="sourcePoint" />
            <mxPoint x="290" y="80" as="targetPoint" />
          </mxGeometry>
        </mxCell>
        <mxCell id="sP9vwEh8VMAq78QCd82c-315" value="AMQP" style="edgeLabel;html=1;align=center;verticalAlign=middle;resizable=0;points=[];" parent="sP9vwEh8VMAq78QCd82c-314" vertex="1" connectable="0">
          <mxGeometry x="-0.1383" relative="1" as="geometry">
            <mxPoint x="4" y="10" as="offset" />
          </mxGeometry>
        </mxCell>
        <mxCell id="8AXManp42QuGBRwcY8ov-2" value="" style="endArrow=classic;startArrow=classic;html=1;rounded=0;fillColor=#ffe6cc;strokeColor=#d79b00;" parent="sP9vwEh8VMAq78QCd82c-306" edge="1">
          <mxGeometry width="50" height="50" relative="1" as="geometry">
            <mxPoint x="300" y="80" as="sourcePoint" />
            <mxPoint x="360" y="80" as="targetPoint" />
          </mxGeometry>
        </mxCell>
        <mxCell id="8AXManp42QuGBRwcY8ov-3" value="MQTT" style="edgeLabel;html=1;align=center;verticalAlign=middle;resizable=0;points=[];" parent="8AXManp42QuGBRwcY8ov-2" vertex="1" connectable="0">
          <mxGeometry x="-0.1383" relative="1" as="geometry">
            <mxPoint x="4" y="10" as="offset" />
          </mxGeometry>
        </mxCell>
      </root>
    </mxGraphModel>
  </diagram>
</mxfile>
